<svg xmlns="http://www.w3.org/2000/svg" fill="none" viewBox="0 0 960 460"><style>text{font-family:-apple-system,BlinkMacSystemFont,&apos;Segoe UI&apos;,Helvetica,Arial,sans-serif}</style><defs><marker id="arrowhead" markerHeight="7" markerWidth="8" orient="auto-start-reverse" refX="10" refY="3.5" viewBox="0 0 10 7"><polygon fill="#16a34a" fill-opacity=".7" points="0 0 10 3.5 0 7"/></marker><filter id="shadow"><feDropShadow dx="0" dy="1" flood-color="#000" flood-opacity=".08" stdDeviation="3"/></filter></defs><rect width="960" height="460" fill="#fff" rx="12"/><text x="480" y="24" fill="#656d76" font-size="11" font-weight="500" letter-spacing=".5" text-anchor="middle">AI Agents</text><rect width="170" height="50" x="95" y="38" fill="#f6f8fa" stroke="#d0d7de" stroke-width="1" rx="10"/><text x="180" y="68" fill="#1f2328" font-size="13" font-weight="500" text-anchor="middle">OpenClaw</text><rect width="170" height="50" x="295" y="38" fill="#f6f8fa" stroke="#d0d7de" stroke-width="1" rx="10"/><text x="380" y="68" fill="#1f2328" font-size="13" font-weight="500" text-anchor="middle">NanoClaw</text><rect width="170" height="50" x="495" y="38" fill="#f6f8fa" stroke="#d0d7de" stroke-width="1" rx="10"/><text x="580" y="68" fill="#1f2328" font-size="13" font-weight="500" text-anchor="middle">IronClaw</text><rect width="170" height="50" x="695" y="38" fill="#f6f8fa" stroke="#d0d7de" stroke-width="1" rx="10"/><text x="780" y="68" fill="#1f2328" font-size="13" font-weight="500" text-anchor="middle">Any Agent</text><line x1="180" x2="180" y1="88" y2="148" stroke="#16a34a" stroke-opacity=".4" stroke-width="1.5" marker-end="url(#arrowhead)"/><line x1="380" x2="380" y1="88" y2="148" stroke="#16a34a" stroke-opacity=".4" stroke-width="1.5" marker-end="url(#arrowhead)"/><line x1="580" x2="580" y1="88" y2="148" stroke="#16a34a" stroke-opacity=".4" stroke-width="1.5" marker-end="url(#arrowhead)"/><line x1="780" x2="780" y1="88" y2="148" stroke="#16a34a" stroke-opacity=".4" stroke-width="1.5" marker-end="url(#arrowhead)"/><rect width="820" height="142" x="70" y="152" fill="none" stroke="#16a34a" stroke-opacity=".2" stroke-width="1.5" rx="14"/><text x="480" y="178" fill="#16a34a" font-size="11" font-weight="600" letter-spacing="1.5" text-anchor="middle">ONECLI GATEWAY</text><rect width="230" height="80" x="105" y="190" fill="#fff" stroke="#d0d7de" stroke-width="1" filter="url(#shadow)" rx="10"/><text x="220" y="224" fill="#1f2328" font-size="14" font-weight="600" text-anchor="middle">Web Dashboard</text><text x="220" y="244" fill="#656d76" font-size="11" text-anchor="middle">Agent &amp; secret management</text><rect width="230" height="80" x="365" y="190" fill="#fff" stroke="#16a34a" stroke-opacity=".5" stroke-width="1.5" filter="url(#shadow)" rx="10"/><text x="480" y="224" fill="#1f2328" font-size="14" font-weight="600" text-anchor="middle">Rust Gateway</text><text x="480" y="244" fill="#656d76" font-size="11" text-anchor="middle">Credential injection</text><rect width="230" height="80" x="625" y="190" fill="#fff" stroke="#d0d7de" stroke-width="1" filter="url(#shadow)" rx="10"/><text x="740" y="224" fill="#1f2328" font-size="14" font-weight="600" text-anchor="middle">Secret Store</text><text x="740" y="244" fill="#656d76" font-size="11" text-anchor="middle">AES-256-GCM · PGlite / Postgres</text><line x1="335" x2="365" y1="230" y2="230" stroke="#656d76" stroke-dasharray="4 3" stroke-opacity=".4" stroke-width="1"/><line x1="595" x2="625" y1="230" y2="230" stroke="#656d76" stroke-dasharray="4 3" stroke-opacity=".4" stroke-width="1"/><line x1="180" x2="180" y1="294" y2="350" stroke="#16a34a" stroke-opacity=".4" stroke-width="1.5" marker-end="url(#arrowhead)"/><line x1="380" x2="380" y1="294" y2="350" stroke="#16a34a" stroke-opacity=".4" stroke-width="1.5" marker-end="url(#arrowhead)"/><line x1="580" x2="580" y1="294" y2="350" stroke="#16a34a" stroke-opacity=".4" stroke-width="1.5" marker-end="url(#arrowhead)"/><line x1="780" x2="780" y1="294" y2="350" stroke="#16a34a" stroke-opacity=".4" stroke-width="1.5" marker-end="url(#arrowhead)"/><text x="480" y="370" fill="#656d76" font-size="11" font-weight="500" letter-spacing=".5" text-anchor="middle">External APIs</text><rect width="170" height="50" x="95" y="380" fill="#f6f8fa" stroke="#d0d7de" stroke-width="1" rx="10"/><text x="180" y="410" fill="#1f2328" font-size="13" font-weight="500" text-anchor="middle">Anthropic</text><rect width="170" height="50" x="295" y="380" fill="#f6f8fa" stroke="#d0d7de" stroke-width="1" rx="10"/><text x="380" y="410" fill="#1f2328" font-size="13" font-weight="500" text-anchor="middle">OpenAI</text><rect width="170" height="50" x="495" y="380" fill="#f6f8fa" stroke="#d0d7de" stroke-width="1" rx="10"/><text x="580" y="410" fill="#1f2328" font-size="13" font-weight="500" text-anchor="middle">GitHub</text><rect width="170" height="50" x="695" y="380" fill="#f6f8fa" stroke="#d0d7de" stroke-width="1" rx="10"/><text x="780" y="410" fill="#1f2328" font-size="13" font-weight="500" text-anchor="middle">Any API</text></svg>